# Blender v2.82 (sub 7) OBJ File: 'Bed_Room.blend'
# www.blender.org
mtllib Bed_Room.mtl
o Plane.001
v -1.473157 0.723057 -0.477755
v 3.855038 0.723057 -0.477755
v -1.473157 0.723057 -3.508939
v 3.855038 0.723057 -3.508939
v -1.473157 0.892615 -3.508939
v -1.473157 0.892615 -0.477755
v 3.855038 0.892615 -0.477755
v 3.855038 0.892615 -3.508939
v 3.651369 0.723057 -0.477755
v 3.651369 0.723057 -3.508939
v 3.651369 0.892615 -0.477755
v 3.651369 0.892615 -3.508939
v -1.269371 0.723057 -3.508939
v -1.269371 0.892615 -3.508939
v -1.269371 0.723057 -0.477755
v -1.269371 0.892615 -0.477755
v -1.473157 0.723057 -3.286115
v 3.855038 0.723057 -3.286115
v -1.473157 0.892615 -3.286115
v 3.855038 0.892615 -3.286115
v 3.651369 0.892615 -3.286115
v 3.651369 0.723057 -3.286115
v -1.269371 0.723057 -3.286115
v -1.269371 0.892615 -3.286115
v -1.473157 0.723057 -0.705384
v -1.473157 0.892615 -0.705384
v 3.651369 0.723057 -0.705384
v -1.269371 0.723057 -0.705384
v 3.855038 0.723057 -0.705384
v 3.855038 0.892615 -0.705384
v 3.651369 0.892615 -0.705384
v -1.269371 0.892615 -0.705384
v -1.473157 0.008584 -0.705384
v -1.473157 0.008584 -0.477755
v 3.651369 0.008584 -0.477755
v 3.855038 0.008584 -0.477755
v 3.855038 0.008584 -3.286115
v 3.855038 0.008584 -3.508939
v -1.269371 0.008584 -3.508939
v -1.473157 0.008584 -3.508939
v 3.651369 0.008584 -3.508939
v 3.651369 0.008584 -0.705384
v -1.269371 0.008584 -0.477755
v -1.269371 0.008584 -0.705384
v -1.473157 0.008584 -3.286115
v 3.651369 0.008584 -3.286115
v -1.269371 0.008584 -3.286115
v 3.855038 0.008584 -0.705384
v -1.473157 1.593635 -0.705384
v -1.473157 1.593635 -0.477755
v -1.269371 1.593635 -3.508939
v -1.473157 1.593635 -3.508939
v -1.269371 1.593635 -0.477755
v -1.269371 1.593635 -3.286115
v -1.473157 1.593635 -3.286115
v -1.269371 1.593635 -0.705384
vt 0.961775 0.000000
vt 0.961775 0.075096
vt 0.961775 0.075096
vt 0.961775 0.000000
vt 0.961775 0.926490
vt 1.000000 0.926490
vt 1.000000 1.000000
vt 0.961775 1.000000
vt 0.038247 1.000000
vt 0.000000 1.000000
vt 0.000000 1.000000
vt 0.038247 1.000000
vt 1.000000 0.000000
vt 1.000000 0.000000
vt 0.961775 0.000000
vt 1.000000 0.926490
vt 1.000000 1.000000
vt 0.000000 0.075096
vt 0.000000 0.000000
vt 0.000000 0.000000
vt 0.000000 0.075096
vt 0.038247 0.000000
vt 0.038247 0.000000
vt 0.961775 1.000000
vt 0.038247 0.926490
vt 0.038247 0.926490
vt 0.961775 0.926490
vt 1.000000 0.075096
vt 1.000000 0.000000
vt 1.000000 0.075096
vt 0.038247 1.000000
vt 0.038247 0.926490
vt 0.000000 1.000000
vt 0.000000 0.926490
vt 0.038247 0.075096
vt 0.038247 0.075096
vt 0.961775 0.075096
vt 0.000000 0.926490
vt 1.000000 0.075096
vt 0.961775 1.000000
vt 0.961775 0.926490
vt 0.038247 1.000000
vt 0.000000 1.000000
vt 0.038247 0.075096
vt 0.038247 0.000000
vt 1.000000 1.000000
vt 1.000000 0.926490
vt 0.000000 0.926490
vt 0.038247 0.926490
vt 0.000000 0.000000
vt 0.000000 0.075096
vt 0.038247 0.075096
vt 0.038247 0.000000
vt 0.000000 0.926490
vt 0.000000 0.075096
vt 0.000000 0.000000
vn -1.0000 0.0000 0.0000
vn 0.0000 1.0000 0.0000
vn 0.0000 0.0000 -1.0000
vn 0.0000 0.0000 1.0000
vn 1.0000 0.0000 0.0000
vn 0.0000 -1.0000 0.0000
usemtl Material.001
s off
f 9/1/1 27/2/1 42/3/1 35/4/1
f 21/5/2 20/6/2 8/7/2 12/8/2
f 13/9/3 3/10/3 5/11/3 14/12/3
f 9/1/4 2/13/4 7/14/4 11/15/4
f 18/16/5 4/17/5 8/7/5 20/6/5
f 25/18/1 1/19/1 6/20/1 26/21/1
f 15/22/4 9/1/4 11/15/4 16/23/4
f 4/17/3 10/24/3 12/8/3 8/7/3
f 24/25/2 21/5/2 12/8/2 14/12/2
f 23/26/6 13/9/6 10/24/6 22/27/6
f 29/28/5 2/13/5 36/29/5 48/30/5
f 24/25/5 14/12/5 51/31/5 54/32/5
f 1/19/4 15/22/4 16/23/4 6/20/4
f 10/24/3 13/9/3 14/12/3 12/8/3
f 14/12/3 5/11/3 52/33/3 51/31/3
f 25/18/6 17/34/6 23/26/6 28/35/6
f 28/35/6 23/26/6 22/27/6 27/2/6
f 32/36/2 31/37/2 21/5/2 24/25/2
f 3/10/1 17/34/1 19/38/1 5/11/1
f 29/28/5 18/16/5 20/6/5 30/39/5
f 31/37/2 30/39/2 20/6/2 21/5/2
f 27/2/6 22/27/6 18/16/6 29/28/6
f 22/27/1 10/24/1 41/40/1 46/41/1
f 11/15/2 7/14/2 30/39/2 31/37/2
f 2/13/5 29/28/5 30/39/5 7/14/5
f 16/23/2 11/15/2 31/37/2 32/36/2
f 15/22/6 28/35/6 27/2/6 9/1/6
f 3/10/3 13/9/3 39/42/3 40/43/3
f 16/23/5 32/36/5 56/44/5 53/45/5
f 17/34/1 25/18/1 26/21/1 19/38/1
f 46/41/6 41/40/6 38/46/6 37/47/6
f 45/48/6 40/43/6 39/42/6 47/49/6
f 35/4/6 42/3/6 48/30/6 36/29/6
f 34/50/6 33/51/6 44/52/6 43/53/6
f 13/9/5 23/26/5 47/49/5 39/42/5
f 25/18/3 28/35/3 44/52/3 33/51/3
f 10/24/3 4/17/3 38/46/3 41/40/3
f 17/34/1 3/10/1 40/43/1 45/48/1
f 18/16/4 22/27/4 46/41/4 37/47/4
f 15/22/4 1/19/4 34/50/4 43/53/4
f 1/19/1 25/18/1 33/51/1 34/50/1
f 23/26/4 17/34/4 45/48/4 47/49/4
f 27/2/3 29/28/3 48/30/3 42/3/3
f 2/13/4 9/1/4 35/4/4 36/29/4
f 28/35/5 15/22/5 43/53/5 44/52/5
f 4/17/5 18/16/5 37/47/5 38/46/5
f 55/54/2 54/32/2 51/31/2 52/33/2
f 49/55/2 56/44/2 54/32/2 55/54/2
f 50/56/2 53/45/2 56/44/2 49/55/2
f 19/38/1 26/21/1 49/55/1 55/54/1
f 6/20/4 16/23/4 53/45/4 50/56/4
f 5/11/1 19/38/1 55/54/1 52/33/1
f 26/21/1 6/20/1 50/56/1 49/55/1
f 32/36/5 24/25/5 54/32/5 56/44/5
