# Blender v2.82 (sub 7) OBJ File: 'Table_Room.blend'
# www.blender.org
mtllib Table_Room.mtl
o Plane.002
v -3.186839 1.829323 3.639957
v 0.454208 1.829323 3.639957
v -3.186839 1.829323 1.710483
v 0.454208 1.829323 1.710483
v -3.186839 1.967705 1.710483
v -3.186839 1.967705 3.639957
v 0.454208 1.967705 3.639957
v 0.454208 1.967705 1.710483
v -0.662548 1.829323 3.639957
v -0.662548 1.829323 1.710483
v -0.662548 1.967705 3.639957
v -0.662548 1.967705 1.710483
v -2.950345 1.829323 1.710483
v -2.950345 1.967705 1.710483
v -2.950345 1.829323 3.639957
v -2.950345 1.967705 3.639957
v -3.186839 0.005339 1.710483
v -3.186839 0.005339 3.639957
v -0.662548 0.005339 3.639957
v 0.454208 0.005339 3.639957
v 0.454208 0.005339 1.710483
v -2.950345 0.005339 1.710483
v -0.662548 0.005339 1.710483
v -2.950345 0.005339 3.639957
vt 0.693287 1.000000
vt 1.000000 1.000000
vt 1.000000 1.000000
vt 0.693287 1.000000
vt 0.693287 0.000000
vt 1.000000 0.000000
vt 1.000000 1.000000
vt 0.693287 1.000000
vt 1.000000 0.000000
vt 0.000000 1.000000
vt 0.000000 0.000000
vt 0.000000 0.000000
vt 0.000000 1.000000
vt 0.064952 1.000000
vt 0.064952 1.000000
vt 0.693287 0.000000
vt 0.064952 0.000000
vt 0.064952 0.000000
vt 0.064952 0.000000
vt 0.064952 1.000000
vt 0.693287 0.000000
vt 1.000000 0.000000
vt 0.000000 0.000000
vt 0.000000 1.000000
vn 0.0000 0.0000 -1.0000
vn 0.0000 1.0000 0.0000
vn 1.0000 0.0000 0.0000
vn -1.0000 0.0000 0.0000
vn 0.0000 0.0000 1.0000
vn 0.0000 -1.0000 0.0000
usemtl Material.002
s off
f 10/1/1 4/2/1 21/3/1 23/4/1
f 11/5/2 7/6/2 8/7/2 12/8/2
f 2/9/3 4/2/3 8/7/3 7/6/3
f 3/10/4 1/11/4 6/12/4 5/13/4
f 13/14/1 3/10/1 5/13/1 14/15/1
f 9/16/5 2/9/5 7/6/5 11/5/5
f 15/17/5 9/16/5 11/5/5 16/18/5
f 4/2/1 10/1/1 12/8/1 8/7/1
f 16/18/2 11/5/2 12/8/2 14/15/2
f 15/17/6 13/14/6 10/1/6 9/16/6
f 13/14/3 15/17/3 24/19/3 22/20/3
f 6/12/2 16/18/2 14/15/2 5/13/2
f 1/11/5 15/17/5 16/18/5 6/12/5
f 10/1/1 13/14/1 14/15/1 12/8/1
f 19/21/6 23/4/6 21/3/6 20/22/6
f 18/23/6 17/24/6 22/20/6 24/19/6
f 4/2/3 2/9/3 20/22/3 21/3/3
f 15/17/5 1/11/5 18/23/5 24/19/5
f 1/11/4 3/10/4 17/24/4 18/23/4
f 3/10/1 13/14/1 22/20/1 17/24/1
f 2/9/5 9/16/5 19/21/5 20/22/5
f 9/16/4 10/1/4 23/4/4 19/21/4
