# Blender v2.82 (sub 7) OBJ File: 'Walls_Room.blend'
# www.blender.org
mtllib Walls_Room.mtl
o Plane
v -4.003448 0.000000 3.687060
v 4.003448 0.000000 3.687060
v -4.003448 0.000000 -3.687060
v 4.003448 0.000000 -3.687060
v -4.003448 4.022819 3.687060
v 4.003448 4.022819 3.687060
v -4.003448 4.022819 -3.687060
v 4.003448 4.022819 -3.687060
v -4.003448 0.000000 3.100649
v 4.003448 0.000000 3.100649
v -4.003448 4.022819 3.100649
v 4.003448 4.022819 3.100649
v 4.003448 0.000000 0.181904
v 4.003448 4.022819 0.181904
v -4.003448 0.000000 0.181904
v -4.003448 4.022819 0.181904
v -4.003448 3.652595 -3.687060
v 4.003448 3.652595 -3.687060
v 4.003448 3.652595 3.687060
v -4.003448 3.652595 3.687060
v -4.003448 3.652595 3.100649
v -4.003448 3.652595 0.181904
v 4.003448 1.515736 -3.687060
v -4.003448 1.515736 3.687060
v -4.003448 1.515736 3.100649
v -4.003448 1.515736 0.181904
v -4.003448 1.515736 -3.687060
v 4.003448 1.515736 3.687060
v -4.699073 3.652595 0.181904
v -4.699073 3.652595 3.100649
v -4.699073 1.515736 3.100649
v -4.699073 1.515736 0.181904
vt 0.000000 0.475332
vt 1.000000 0.475332
vt 1.000000 1.000000
vt 0.000000 1.000000
vt 0.000000 0.475332
vt 0.000000 1.000000
vt 1.000000 1.000000
vt 1.000000 0.475332
vt 1.000000 1.000000
vt 0.000000 1.000000
vt 0.000000 0.000000
vt 0.000000 0.000000
vt 1.000000 0.000000
vt 1.000000 0.000000
vt 0.000000 0.079523
vt 0.000000 0.079523
vt 0.000000 0.475332
vt 1.000000 0.079523
vt 0.000000 0.000000
vt 1.000000 0.000000
vt 1.000000 0.079523
vt 0.000000 0.079523
vt 0.000000 1.000000
vt 0.000000 0.475332
vt 0.000000 0.079523
vt 0.000000 0.079523
vt 0.000000 0.079523
vt 0.000000 0.000000
vt 1.000000 0.000000
vt 1.000000 1.000000
vt 0.000000 0.475332
vt 0.000000 0.475332
vn 0.0000 1.0000 0.0000
vn 0.0000 -1.0000 0.0000
vn 0.0000 0.0000 1.0000
vn 0.0000 0.0000 -1.0000
vn 1.0000 0.0000 0.0000
usemtl Material.004
s off
f 15/1/1 13/2/1 4/3/1 3/4/1
f 16/5/2 7/6/2 8/7/2 14/8/2
f 18/9/3 8/7/3 7/6/3 17/10/3
f 20/11/4 5/12/4 6/13/4 19/14/4
f 21/15/5 11/16/5 5/12/5 20/11/5
f 22/17/5 16/5/5 11/16/5 21/15/5
f 5/12/2 11/16/2 12/18/2 6/13/2
f 1/19/1 2/20/1 10/21/1 9/22/1
f 17/10/5 7/6/5 16/5/5 22/17/5
f 11/16/2 16/5/2 14/8/2 12/18/2
f 9/22/1 10/21/1 13/2/1 15/1/1
f 27/23/5 17/10/5 22/17/5 26/24/5
f 21/15/4 25/25/4 31/26/4 30/27/4
f 25/25/5 21/15/5 20/11/5 24/28/5
f 24/28/4 20/11/4 19/14/4 28/29/4
f 23/30/3 18/9/3 17/10/3 27/23/3
f 4/3/3 23/30/3 27/23/3 3/4/3
f 1/19/4 24/28/4 28/29/4 2/20/4
f 9/22/5 25/25/5 24/28/5 1/19/5
f 15/1/5 26/24/5 25/25/5 9/22/5
f 3/4/5 27/23/5 26/24/5 15/1/5
f 25/25/1 26/24/1 32/31/1 31/26/1
f 22/17/2 21/15/2 30/27/2 29/32/2
f 26/24/3 22/17/3 29/32/3 32/31/3
